LG_Walk_Normal10																		
version=1																		
nRows=61																		
nColumns=19																		
inDegrees=yes																		
endheader																		
time	ground_force2_vx	ground_force2_vy	ground_force2_vz	ground_force2_px	ground_force2_py	ground_force2_pz	ground_torque2_x	ground_torque2_y	ground_torque2_z	ground_force1_vx	ground_force1_vy	ground_force1_vz	ground_force1_px	ground_force1_py	ground_force1_pz	ground_torque1_x	ground_torque1_y	ground_torque1_z
5.935	-29.086803	668.304871	-87.745613	0.185055	0	-0.376858	1.00E-05	-0.843378	6.00E-06	0	0	0	-0.13	0	0.305	0	0	0
5.936	-28.23333	663.988953	-87.588913	0.185164	0	-0.377099	5.00E-06	-0.816642	-1.00E-06	0	0	0	-0.13	0	0.305	0	0	0
5.937	-27.993282	661.243408	-87.745613	0.184929	0	-0.377526	4.00E-06	-0.70832	-1.00E-06	0	0	0	-0.13	0	0.305	0	0	0
5.938	-26.904812	653.317627	-87.745132	0.184934	0	-0.377876	3.00E-06	-0.67889	1.00E-06	0	0	0	-0.13	0	0.305	0	0	0
5.939	-26.363462	650.901794	-87.980164	0.184822	0	-0.377931	-2.00E-06	-0.70832	2.00E-06	0	0	0	-0.13	0	0.305	0	0	0
5.94	-25.581347	644.182556	-87.745132	0.184673	0	-0.377931	-2.00E-06	-0.735012	1.00E-06	0	0	0	-0.13	0	0.305	0	0	0
5.941	-24.255714	637.474854	-87.431526	0.184562	0	-0.377926	5.00E-06	-0.805388	7.00E-06	0	0	0	-0.13	0	0.305	0	0	0
5.942	-23.393581	635.579407	-87.431198	0.18438	0	-0.377926	5.00E-06	-0.805388	7.00E-06	0	0	0	-0.13	0	0.305	0	0	0
5.943	-23.088673	627.811768	-87.431198	0.184562	0	-0.378475	5.00E-06	-0.888994	7.00E-06	0	0	0	-0.13	0	0.305	0	0	0
5.944	-21.686632	623.352051	-87.431198	0.184164	0	-0.378759	8.00E-06	-0.732514	6.00E-06	0	0	0	-0.13	0	0.305	0	0	0
5.945	-21.680138	621.620117	-87.666153	0.184307	0	-0.378759	1.60E-05	-0.888994	3.00E-06	0	0	0	-0.13	0	0.305	0	0	0
5.946	-19.89534	612.169189	-87.666153	0.184307	0	-0.378759	1.40E-05	-0.574109	3.00E-06	0	0	0	-0.13	0	0.305	0	0	0
5.947	-19.656734	611.476013	-87.27446	0.184373	0	-0.379027	1.60E-05	-0.686567	6.00E-06	0	0	0	-0.13	0	0.305	0	0	0
5.948	-19.656734	603.55481	-87.27446	0.184373	0	-0.378202	1.60E-05	-0.431593	6.00E-06	0	0	0	-0.13	0	0.305	0	0	0
5.949	-19.5861	600.297058	-86.569084	0.184325	0	-0.378668	1.60E-05	-0.603432	4.00E-06	0	0	0	-0.13	0	0.305	0	0	0
5.95	-18.966179	596.67395	-86.490593	0.184265	0	-0.378668	7.00E-06	-0.370565	4.00E-06	0	0	0	-0.13	0	0.305	0	0	0
5.951	-18.723967	587.886414	-86.020485	0.184217	0	-0.379167	7.00E-06	-0.49932	4.00E-06	0	0	0	-0.13	0	0.305	0	0	0
5.952	-18.186947	584.957275	-85.393524	0.183832	0	-0.379692	5.00E-06	-0.293815	3.00E-06	0	0	0	-0.13	0	0.305	0	0	0
5.953	-18.024754	577.213867	-84.845001	0.183814	0	-0.379692	1.00E-05	-0.293815	3.00E-06	0	0	0	-0.13	0	0.305	0	0	0
5.954	-17.094149	573.418762	-84.844925	0.183737	0	-0.379829	6.00E-06	-0.293815	6.00E-06	0	0	0	-0.13	0	0.305	0	0	0
5.955	-16.861317	569.113647	-84.217957	0.183706	0	-0.380193	1.00E-05	-0.380031	7.00E-06	0	0	0	-0.13	0	0.305	0	0	0
5.956	-16.161381	561.711304	-83.277634	0.183646	0	-0.380616	1.30E-05	-0.380031	7.00E-06	0	0	0	-0.13	0	0.305	0	0	0
5.957	-15.688501	555.172913	-83.199219	0.183409	0	-0.38063	1.30E-05	-0.354654	7.00E-06	0	0	0	-0.13	0	0.305	0	0	0
5.958	-15.379985	548.279297	-83.042686	0.183117	0	-0.380655	9.00E-06	-0.354654	9.00E-06	0	0	0	-0.13	0	0.305	0	0	0
5.959	-14.677161	540.371216	-82.180649	0.183024	0	-0.381377	9.00E-06	-0.354654	2.00E-06	0	0	0	-0.13	0	0.305	0	0	0
5.96	-14.605803	534.671387	-82.180397	0.183002	0	-0.381377	1.40E-05	-0.310097	3.00E-06	0	0	0	-0.13	0	0.305	0	0	0
5.961	-13.430823	527.294067	-81.710381	0.183024	0	-0.381583	1.40E-05	-0.273915	3.00E-06	0	0	0	-0.13	0	0.305	0	0	0
5.962	-12.497334	522.463684	-81.318398	0.183002	0	-0.381583	1.40E-05	-0.310097	5.00E-06	0	0	0	-0.13	0	0.305	0	0	0
5.963	-12.418761	514.03833	-81.161621	0.183249	0	-0.38163	7.00E-06	-0.273915	6.00E-06	0	0	0	-0.13	0	0.305	0	0	0
5.964	-11.643139	510.075806	-80.534615	0.182815	0	-0.381674	7.00E-06	-0.142481	6.00E-06	0	0	0	-0.13	0	0.305	0	0	0
5.965	-11.565288	502.160034	-79.516235	0.182815	0	-0.381731	7.00E-06	-0.107009	6.00E-06	0	0	0	-0.13	0	0.305	0	0	0
5.966	-10.943201	492.342621	-79.515961	0.182815	0	-0.382532	7.00E-06	-0.083967	8.00E-06	0	0	0	-0.13	0	0.305	0	0	0
5.967	-10.554668	490.274017	-78.105766	0.182823	0	-0.382562	7.00E-06	-0.107009	8.00E-06	0	0	0	-0.13	0	0.305	0	0	0
5.968	-10.554668	482.874329	-77.792	0.182875	0	-0.382532	3.00E-06	0.060516	9.00E-06	0	0	0	-0.13	0	0.305	0	0	0
5.969	-10.554668	475.664032	-76.381813	0.182823	0	-0.382562	4.00E-06	0.188944	9.00E-06	0	0	0	-0.13	0	0.305	0	0	0
5.97	-10.875452	471.505524	-75.206413	0.182956	0	-0.382925	4.00E-06	0.237475	6.00E-06	0	0	0	-0.13	0	0.305	0	0	0
5.971	-10.875452	462.407104	-75.206253	0.182692	0	-0.382995	5.00E-06	0.298221	1.00E-06	0	0	0	-0.13	0	0.305	0	0	0
5.972	-9.94124	456.375977	-74.736069	0.182756	0	-0.382995	1.20E-05	0.237475	1.00E-06	0	0	0	-0.13	0	0.305	0	0	0
5.973	-9.860504	447.259399	-73.874146	0.182692	0	-0.383642	1.20E-05	0.298221	6.00E-06	0	0	0	-0.13	0	0.305	0	0	0
5.974	-8.854935	441.049683	-73.403923	0.18225	0	-0.384227	7.00E-06	0.199981	9.00E-06	0	0	0	-0.13	0	0.305	0	0	0
5.975	-8.304205	432.443481	-73.090439	0.181952	0	-0.383642	7.00E-06	0.213527	6.00E-06	0	0	0	-0.13	0	0.305	0	0	0
5.976	-8.302763	426.769897	-71.053154	0.181952	0	-0.384808	6.00E-06	0.213527	3.00E-06	0	0	0	-0.13	0	0.305	0	0	0
5.977	-7.917116	418.15976	-70.269699	0.181951	0	-0.384831	8.00E-06	0.328193	3.00E-06	0	0	0	-0.13	0	0.305	0	0	0
5.978	-7.841429	409.716736	-68.780693	0.181669	0	-0.385381	8.00E-06	0.338934	0	0	0	0	-0.13	0	0.305	0	0	0
5.979	-6.670057	402.670715	-68.702362	0.181669	0	-0.385381	8.00E-06	0.338934	3.00E-06	0	0	0	-0.13	0	0.305	0	0	0
5.98	-6.440834	395.606995	-66.821777	0.181669	0	-0.385661	9.00E-06	0.426605	3.00E-06	0	0	0	-0.13	0	0.305	0	0	0
5.981	-6.127266	385.462891	-65.959908	0.181839	0	-0.385661	9.00E-06	0.527714	3.00E-06	0	0	0	-0.13	0	0.305	0	0	0
5.982	-5.898043	382.019196	-64.000801	0.181122	0	-0.385661	9.00E-06	0.567604	5.00E-06	0	0	0	-0.13	0	0.305	0	0	0
5.983	-5.433102	371.51593	-62.433899	0.181957	0	-0.386279	6.00E-06	0.5994	5.00E-06	0	0	0	-0.13	0	0.305	0	0	0
5.984	-5.279564	365.671875	-61.649914	0.181537	0	-0.386307	6.00E-06	0.608467	2.00E-06	0	0	0	-0.13	0	0.305	0	0	0
5.985	-5.279564	358.617004	-59.847908	0.181537	0	-0.386307	6.00E-06	0.608467	2.00E-06	0	0	0	-0.13	0	0.305	0	0	0
5.986	-4.733164	349.488525	-58.672264	0.181537	0	-0.386734	6.00E-06	0.743256	2.00E-06	0	0	0	-0.13	0	0.305	0	0	0
5.987	-4.347519	347.261353	-56.71344	0.181304	0	-0.387131	6.00E-06	0.722213	6.00E-06	0	0	0	-0.13	0	0.305	0	0	0
5.988	-3.721102	337.608276	-55.381298	0.182333	0	-0.386734	6.00E-06	0.755239	6.00E-06	0	0	0	-0.13	0	0.305	0	0	0
5.989	-3.414026	331.794708	-53.970741	0.181247	0	-0.386819	7.00E-06	0.840574	5.00E-06	0	0	0	-0.13	0	0.305	0	0	0
5.99	-3.340506	325.220825	-51.698433	0.181754	0	-0.386819	1.10E-05	0.893215	3.00E-06	0	0	0	-0.13	0	0.305	0	0	0
5.991	-3.105511	314.551727	-50.13126	0.181274	0	-0.387065	1.10E-05	0.93485	2.00E-06	0	0	0	-0.13	0	0.305	0	0	0
5.992	-3.105511	310.769745	-48.485718	0.181477	0	-0.388455	0	0.893215	1.00E-06	0	0	0	-0.13	0	0.305	0	0	0
5.993	-3.030544	301.134399	-46.761597	0.181274	0	-0.388456	0	0.945141	2.00E-06	0	0	0	-0.13	0	0.305	0	0	0
5.994	-2.724194	294.580994	-45.037842	0.181108	0	-0.388979	0	0.997389	3.00E-06	0	0	0	-0.13	0	0.305	0	0	0
5.995	-2.489918	288.206909	-42.452053	0.181108	0	-0.388979	2.00E-06	1.00813	5.00E-06	0	0	0	-0.13	0	0.305	0	0	0
